#!OML:ASF H:\ManfredETheater\Project 1\Capture day 1\Session 1\subject.ASF
:FULLY-SPECIFIED
:DEGREES
232
root -10.7226 17.831 -32.3065 -180.743 -29.6264 182.586
lowerback 6.32469 -1.07642 0.576542
upperback -2.19004 -1.30287 2.66853
thorax -5.78238 -0.637663 2.6065
lowerneck -18.8834 -1.21497 -2.55718
upperneck 23.3055 -0.751496 -2.44303
head 10.6267 -1.06755 -0.593331
rclavicle 2.53823e-014 -1.59028e-015
rhumerus -51.9626 -29.3612 -50.3403
rradius 25.8335
rwrist 6.55317
rhand -24.3999 -9.35146
rfingers 7.12502
rthumb 2.09115 -39.321
lclavicle 2.53823e-014 -1.59028e-015
lhumerus -40.8852 7.4203 85.8624
lradius 44.8776
lwrist -1.95001
lhand -20.0052 4.90035
lfingers 7.12502
lthumb 6.33481 34.7856
rfemur -16.6525 0.0446674 23.1733
rtibia 35.8088
rfoot -18.4789 -11.3147
rtoes -16.171
lfemur -23.8462 -9.6157 -18.4656
ltibia 45.8379
lfoot -19.9433 -5.35808
ltoes 8.38049
233
root -10.7393 17.8347 -32.3591 -180.536 -29.5567 182.565
lowerback 6.25797 -1.04829 0.474684
upperback -2.22211 -1.27468 2.64773
thorax -5.77733 -0.619886 2.63777
lowerneck -18.89 -1.17018 -2.54583
upperneck 23.4783 -0.698701 -2.45099
head 10.6915 -1.05117 -0.593497
rclavicle -2.9035e-014 2.66371e-014
rhumerus -51.6978 -29.191 -51.289
rradius 25.9579
rwrist 6.53522
rhand -24.2676 -8.92129
rfingers 7.12502
rthumb 2.21892 -38.8895
lclavicle -2.9035e-014 2.66371e-014
lhumerus -41.0156 7.55958 85.7604
lradius 44.4318
lwrist -2.43935
lhand -19.7536 4.39274
lfingers 7.12502
lthumb 6.57772 34.2706
rfemur -16.6296 0.109716 23.2061
rtibia 35.7504
rfoot -18.7314 -11.4224
rtoes -16.4857
lfemur -23.8265 -9.63526 -18.4404
ltibia 45.8208
lfoot -20.144 -5.21768
ltoes 8.31055
234
root -10.7558 17.8376 -32.4102 -180.334 -29.4641 182.564
lowerback 6.20255 -1.01334 0.39321
upperback -2.25545 -1.23538 2.63247
thorax -5.78094 -0.59735 2.66257
lowerneck -18.884 -1.12583 -2.52756
upperneck 23.6179 -0.646004 -2.46697
head 10.7417 -1.03401 -0.59705
rclavicle -4.77021e-014 -5.1684e-015
rhumerus -51.3647 -28.9421 -52.3373
rradius 26.0971
rwrist 6.53343
rhand -24.1625 -8.48399
rfingers 7.12502
rthumb 2.32039 -38.4511
lclavicle -4.77021e-014 -5.1684e-015
lhumerus -41.1456 7.68217 85.6627
lradius 43.9865
lwrist -3.01047
lhand -19.4462 3.85767
lfingers 7.12502
lthumb 6.87441 33.7261
rfemur -16.626 0.190863 23.2574
rtibia 35.7071
rfoot -18.985 -11.5235
rtoes -16.8032
lfemur -23.821 -9.65524 -18.3948
ltibia 45.8129
lfoot -20.3443 -5.05422
ltoes 8.20122
235
root -10.7737 17.8398 -32.4609 -180.123 -29.3657 182.539
lowerback 6.13775 -0.97726 0.304061
upperback -2.27855 -1.19553 2.61042
thorax -5.76851 -0.574392 2.68406
lowerneck -18.8813 -1.08304 -2.50785
upperneck 23.7296 -0.593955 -2.48366
head 10.7823 -1.01585 -0.600717
rclavicle -2.75317e-014 2.78299e-014
rhumerus -50.9625 -28.632 -53.4701
rradius 26.2475
rwrist 6.54769
rhand -24.0903 -8.04255
rfingers 7.12502
rthumb 2.39012 -38.0089
lclavicle -2.75317e-014 2.78299e-014
lhumerus -41.2669 7.7885 85.5759
lradius 43.5527
lwrist -3.62953
lhand -19.0972 3.32935
lfingers 7.12502
lthumb 7.21128 33.1865
rfemur -16.6265 0.235907 23.2779
rtibia 35.6797
rfoot -19.2497 -11.5834
rtoes -17.1431
lfemur -23.8105 -9.69155 -18.3798
ltibia 45.8104
lfoot -20.554 -4.86486
ltoes 8.05713
236
root -10.7924 17.8413 -32.5108 -179.908 -29.255 182.506
lowerback 6.0777 -0.93796 0.220133
upperback -2.29942 -1.15089 2.58471
thorax -5.75691 -0.549282 2.6984
lowerneck -18.8715 -1.0409 -2.48261
upperneck 23.8113 -0.542826 -2.50268
head 10.8105 -0.996637 -0.605705
rclavicle -1.20265e-014 -2.10712e-014
rhumerus -50.5083 -28.2643 -54.6709
rradius 26.4102
rwrist 6.57022
rhand -24.0452 -7.61658
rfingers 7.12502
rthumb 2.43372 -37.5824
lclavicle -1.20265e-014 -2.10712e-014
lhumerus -41.3826 7.89188 85.4888
lradius 43.1156
lwrist -4.29466
lhand -18.7109 2.7928
lfingers 7.12502
lthumb 7.58422 32.6368
rfemur -16.6364 0.264783 23.2843
rtibia 35.6648
rfoot -19.5201 -11.613
rtoes -17.4959
lfemur -23.8032 -9.74183 -18.3774
ltibia 45.8166
lfoot -20.7716 -4.64633
ltoes 7.88048
237
root -10.8117 17.8421 -32.5601 -179.697 -29.1283 182.482
lowerback 6.02081 -0.894781 0.151506
upperback -2.31827 -1.09976 2.56077
thorax -5.74562 -0.52158 2.70539
lowerneck -18.8481 -1.00062 -2.45388
upperneck 23.8608 -0.494524 -2.52251
head 10.8242 -0.9772 -0.611321
rclavicle -4.29282e-014 4.37326e-014
rhumerus -50.0065 -27.8444 -55.9256
rradius 26.5814
rwrist 6.5948
rhand -24.024 -7.21088
rfingers 7.12502
rthumb 2.45416 -37.1765
lclavicle -4.29282e-014 4.37326e-014
lhumerus -41.4956 7.98278 85.4113
lradius 42.6843
lwrist -4.94801
lhand -18.3289 2.28388
lfingers 7.12502
lthumb 7.9529 32.1143
rfemur -16.6551 0.288901 23.2956
rtibia 35.6618
rfoot -19.7948 -11.6217
rtoes -17.8745
lfemur -23.7981 -9.80496 -18.3689
ltibia 45.8302
lfoot -20.999 -4.39635
ltoes 7.66427
238
root -10.8319 17.8423 -32.6088 -179.491 -28.9865 182.465
lowerback 5.96643 -0.84854 0.0977622
upperback -2.33286 -1.04333 2.53796
thorax -5.73185 -0.491878 2.70466
lowerneck -18.826 -0.958933 -2.42444
upperneck 23.8902 -0.444109 -2.53855
head 10.8307 -0.955278 -0.615022
rclavicle -1.20234e-014 -2.26615e-014
rhumerus -49.4589 -27.3813 -57.2232
rradius 26.7579
rwrist 6.6122
rhand -24.0227 -6.8354
rfingers 7.12502
rthumb 2.45542 -36.801
lclavicle -1.20234e-014 -2.26615e-014
lhumerus -41.6057 8.05544 85.3505
lradius 42.2753
lwrist -5.55719
lhand -17.9602 1.86344
lfingers 7.12502
lthumb 8.30873 31.68
rfemur -16.6793 0.301947 23.3089
rtibia 35.6677
rfoot -20.0706 -11.6061
rtoes -18.2691
lfemur -23.7931 -9.87614 -18.3575
ltibia 45.8521
lfoot -21.2377 -4.11956
ltoes 7.42415
239
root -10.8526 17.8418 -32.6569 -179.288 -28.8288 182.455
lowerback 5.92358 -0.798441 0.0568021
upperback -2.34859 -0.980528 2.51532
thorax -5.72641 -0.459457 2.69662
lowerneck -18.798 -0.918756 -2.39193
upperneck 23.8993 -0.396036 -2.55482
head 10.8286 -0.933287 -0.619268
rclavicle 4.43523e-014 -2.26615e-014
rhumerus -48.881 -26.8802 -58.5473
rradius 26.9412
rwrist 6.6212
rhand -24.0293 -6.49398
rfingers 7.12502
rthumb 2.44902 -36.4597
lclavicle 4.43523e-014 -2.26615e-014
lhumerus -41.7121 8.10766 85.3071
lradius 41.8754
lwrist -6.08622
lhand -17.645 1.48302
lfingers 7.12502
lthumb 8.61291 31.2873
rfemur -16.709 0.316551 23.3251
rtibia 35.6784
rfoot -20.3405 -11.5814
rtoes -18.6817
lfemur -23.791 -9.95087 -18.3427
ltibia 45.8836
lfoot -21.4875 -3.82196
ltoes 7.1799
240
root -10.8739 17.8408 -32.7047 -179.092 -28.6585 182.451
lowerback 5.88711 -0.745533 0.0275892
upperback -2.36128 -0.912968 2.49373
thorax -5.72183 -0.425136 2.6827
lowerneck -18.7727 -0.879113 -2.36125
upperneck 23.8946 -0.348027 -2.56749
head 10.8219 -0.910333 -0.621696
rclavicle -7.1578e-015 2.26615e-014
rhumerus -48.2727 -26.3507 -59.8858
rradius 27.1287
rwrist 6.62063
rhand -24.0313 -6.19271
rfingers 7.12502
rthumb 2.44709 -36.1584
lclavicle -7.1578e-015 2.26615e-014
lhumerus -41.818 8.13312 85.2864
lradius 41.4998
lwrist -6.51876
lhand -17.3846 1.15533
lfingers 7.12502
lthumb 8.86418 30.9492
rfemur -16.7385 0.329314 23.343
rtibia 35.6924
rfoot -20.6046 -11.5509
rtoes -19.1115
lfemur -23.7865 -10.024 -18.3268
ltibia 45.9229
lfoot -21.7467 -3.51017
ltoes 6.93341
241
root -10.8956 17.8393 -32.7519 -178.906 -28.4749 182.468
lowerback 5.86178 -0.689933 0.0195241
upperback -2.37369 -0.839945 2.47733
thorax -5.72381 -0.388872 2.66202
lowerneck -18.7462 -0.839903 -2.32869
upperneck 23.8761 -0.300634 -2.57961
head 10.8098 -0.88677 -0.624084
rclavicle -2.0356e-015 -1.15295e-014
rhumerus -47.6378 -25.7908 -61.2349
rradius 27.3252
rwrist 6.59146
rhand -24.0256 -5.93496
rfingers 7.12502
rthumb 2.45259 -35.9006
lclavicle -2.0356e-015 -1.15295e-014
lhumerus -41.9192 8.13309 85.2895
lradius 41.1429
lwrist -6.8378
lhand -17.1951 0.871363
lfingers 7.12502
lthumb 9.04708 30.6573
rfemur -16.7708 0.351559 23.3797
rtibia 35.7081
rfoot -20.8568 -11.5278
rtoes -19.5599
lfemur -23.7851 -10.084 -18.293
ltibia 45.9696
lfoot -22.0126 -3.19776
ltoes 6.70198
242
root -10.9176 17.8375 -32.7989 -178.729 -28.2813 182.493
lowerback 5.84674 -0.631961 0.0190326
upperback -2.38317 -0.762979 2.46373
thorax -5.72881 -0.35091 2.63976
lowerneck -18.7238 -0.801249 -2.29205
upperneck 23.8461 -0.25375 -2.59375
head 10.7944 -0.862725 -0.627795
rclavicle 2.6707e-014 -4.77083e-015
rhumerus -46.9792 -25.1947 -62.5954
rradius 27.5354
rwrist 6.51189
rhand -24.0146 -5.7096
rfingers 7.12502
rthumb 2.46326 -35.6751
lclavicle 2.6707e-014 -4.77083e-015
lhumerus -42.015 8.10885 85.3146
lradius 40.8101
lwrist -7.06072
lhand -17.0409 0.654514
lfingers 7.12502
lthumb 9.19589 30.434
rfemur -16.7983 0.383845 23.4227
rtibia 35.7214
rfoot -21.0964 -11.5187
rtoes -20.0296
lfemur -23.7815 -10.1287 -18.2549
ltibia 46.0239
lfoot -22.2851 -2.88978
ltoes 6.4834
